<?xml version="1.0" encoding="utf-8"?>
<!-- Generator: Adobe Illustrator 18.1.1, SVG Export Plug-In . SVG Version: 6.00 Build 0)  -->
<!DOCTYPE svg PUBLIC "-//W3C//DTD SVG 1.1//EN" "http://www.w3.org/Graphics/SVG/1.1/DTD/svg11.dtd">
<svg version="1.1" id="Layer_1" xmlns="http://www.w3.org/2000/svg" xmlns:xlink="http://www.w3.org/1999/xlink" x="0px" y="0px"
	 viewBox="0 0 68 68" enable-background="new 0 0 68 68" xml:space="preserve">
<path fill-rule="evenodd" clip-rule="evenodd" d="M62.7,21.3c3.1-7.2,3.4-13.2-0.2-16.8c-4-4-13.7-2.8-23.8,2c-0.4,0-0.8,0-1.3,0
	c-7.2,0-14.1,2.6-19.4,7.3c-4.4,3.9-7.5,9.2-8.9,15c1-1.2,6.6-7.9,13-11.4c0.1-0.1,1.7-0.9,1.9-0.9c-0.1,0.1-3.3,3-3.8,3.6
	C6.1,34.1-2.2,55.9,4.2,62.4c4.2,4.2,11.8,3.1,20.7-1.6c3.8,1.8,8.1,2.7,12.6,2.7c6,0,11.6-1.7,16.4-4.8c4.9-3.3,8.7-8.1,10.8-14H49
	c-2,3.8-6.7,6.5-11.5,6.5c-6.8,0-12.5-5.5-12.5-12.1l0-0.3l0-0.3h0.3h40.4c0-0.2,0-0.4,0.1-0.6c0.1-1,0.2-2.1,0.2-3
	C66,29.9,64.9,25.3,62.7,21.3z M8.6,61.2c-3.1-3.1-2.3-9.4,1.7-16.9c1.8,5.1,4.8,9.4,8.6,12.7c1.2,1,2.6,2,4,2.8
	C16.4,63.1,11.3,63.9,8.6,61.2z M23.7,60.2c0.1,0,0.1,0.1,0.2,0.1C23.8,60.3,23.7,60.3,23.7,60.2z M49.7,30.8H25.3H25l0-0.3
	C25.4,24.3,31.3,19,38,19c6.4,0,11.7,5.1,12,11.5l0,0.3H49.7z M57.2,14.1c-2.8-2.6-6-4.6-9.6-5.9c6.4-2.9,11.7-3.3,14.5-0.5
	c2.3,2.3,2,6.6-0.3,12c0,0,0,0,0,0C60.5,17.7,59,15.8,57.2,14.1z M62.3,20.5C62.3,20.5,62.3,20.5,62.3,20.5
	C62.3,20.5,62.3,20.5,62.3,20.5z"/>
</svg>
